<?xml version="1.0" standalone="no"?><!DOCTYPE svg PUBLIC "-//W3C//DTD SVG 1.1//EN" "http://www.w3.org/Graphics/SVG/1.1/DTD/svg11.dtd"><svg t="1659346124555" class="icon" viewBox="0 0 1024 1024" version="1.1" xmlns="http://www.w3.org/2000/svg" p-id="9649" xmlns:xlink="http://www.w3.org/1999/xlink" width="200" height="200"><defs><style type="text/css">@font-face { font-family: feedback-iconfont; src: url("//at.alicdn.com/t/font_1031158_u69w8yhxdu.woff2?t=1630033759944") format("woff2"), url("//at.alicdn.com/t/font_1031158_u69w8yhxdu.woff?t=1630033759944") format("woff"), url("//at.alicdn.com/t/font_1031158_u69w8yhxdu.ttf?t=1630033759944") format("truetype"); }
</style></defs><path d="M175.5 931c-17.67 0-32-14.33-32-32V664.74c0-17.67 14.33-32 32-32s32 14.33 32 32V899c0 17.67-14.33 32-32 32zM399.83 931c-17.67 0-32-14.33-32-32V545.59c0-17.67 14.33-32 32-32s32 14.33 32 32V899c0 17.67-14.32 32-32 32zM624.17 931c-17.67 0-32-14.33-32-32V604.79c0-17.67 14.33-32 32-32s32 14.33 32 32V899c0 17.67-14.33 32-32 32zM848.5 931c-17.67 0-32-14.33-32-32V496c0-17.67 14.33-32 32-32s32 14.33 32 32v403c0 17.67-14.33 32-32 32z" p-id="9650"></path><path d="M169.46 519c-8.22 0-16.43-3.14-22.68-9.43-12.47-12.53-12.42-32.79 0.11-45.25l229.9-228.77c10.99-10.94 28.24-12.42 40.94-3.52L585.2 349.44l200.95-195.39c12.67-12.32 32.93-12.04 45.25 0.63s12.04 32.93-0.63 45.25L610.82 413.79c-11.02 10.71-28.09 12.08-40.68 3.26L402.92 299.82l-210.9 209.87c-6.24 6.21-14.4 9.31-22.56 9.31z" p-id="9651"></path><path d="M854.5 269.38c-16.2 0-30.1-12.26-31.79-28.72l-7.4-71.85-82.64 0.03h-0.01c-17.67 0-31.99-14.32-32-31.99-0.01-17.67 14.32-32 31.99-32.01l111.52-0.04h0.01c16.4 0 30.15 12.4 31.83 28.72l10.36 100.59c1.81 17.58-10.97 33.3-28.55 35.11-1.11 0.1-2.22 0.16-3.32 0.16z" p-id="9652"></path></svg>